<?xml version="1.0" standalone="no"?>
<!DOCTYPE svg PUBLIC "-//W3C//DTD SVG 20010904//EN"
 "http://www.w3.org/TR/2001/REC-SVG-20010904/DTD/svg10.dtd">
<svg version="1.0" xmlns="http://www.w3.org/2000/svg"
 width="165.000000pt" height="57.000000pt" viewBox="0 0 165.000000 57.000000"
 preserveAspectRatio="xMidYMid meet">
<metadata>
Created by potrace 1.16, written by Peter Selinger 2001-2019
</metadata>
<g transform="translate(0.000000,57.000000) scale(0.100000,-0.100000)"
fill="#000000" stroke="none">
<path d="M0 451 c0 -179 39 -283 145 -384 89 -86 115 -86 204 1 116 114 173
295 145 465 l-7 37 -243 0 -244 0 0 -119z m472 42 c2 -32 2 -64 0 -70 -3 -10
-58 -13 -228 -13 l-224 0 0 63 c0 35 3 67 7 70 3 4 104 7 224 7 l217 0 4 -57z
m-114 -188 c55 0 98 -3 96 -6 -2 -3 -46 -5 -99 -4 -85 1 -95 0 -95 -16 0 -28
35 -42 74 -29 25 8 41 7 72 -5 27 -11 30 -13 9 -8 -16 3 -39 6 -50 5 -86 -4
-96 -10 -76 -41 6 -9 20 -11 49 -6 25 4 48 2 59 -5 16 -10 15 -10 -5 -5 -12 4
-36 3 -53 0 -42 -9 -35 -38 11 -46 24 -4 27 -7 11 -8 -15 -1 -21 -6 -18 -15 5
-12 -28 -50 -75 -85 -15 -11 -22 -11 -45 4 -47 30 -82 67 -76 81 3 9 -3 14
-18 15 -16 1 -13 4 11 8 46 8 53 37 11 46 -17 3 -41 3 -53 0 -13 -4 -19 -4
-15 1 5 5 34 9 65 9 51 0 57 2 60 22 2 16 -1 21 -11 18 -7 -3 -25 -1 -40 4
-16 6 -37 7 -58 1 -18 -6 -37 -6 -41 -2 -11 11 42 16 127 10 38 -2 40 -1 49
28 6 21 4 21 -94 19 -55 -1 -102 0 -104 4 -2 3 41 6 97 6 74 1 102 4 105 14 4
11 6 11 13 0 6 -10 36 -13 107 -14z"/>
<path d="M555 518 l2 -53 174 -1 c96 0 182 4 191 8 12 6 16 21 16 53 l0 45
-113 0 -114 0 -4 -27 -4 -28 -2 28 c-1 23 -5 27 -31 27 -25 0 -30 -4 -30 -25
0 -18 -5 -25 -20 -25 -15 0 -20 7 -20 25 0 20 -5 25 -23 25 -22 0 -24 -4 -22
-52z"/>
<path d="M554 376 l0 -54 293 0 c326 0 315 -3 304 68 l-6 35 -295 3 -296 2 0
-54z"/>
<path d="M561 273 c-13 -10 -14 -15 -3 -32 7 -13 8 -21 2 -21 -18 0 -11 -40 8
-41 85 -5 285 -2 289 4 2 4 12 3 21 -2 9 -4 45 -6 80 -3 57 4 62 6 62 28 0 25
-24 33 -34 12 -3 -7 -4 5 -3 27 l2 40 -45 1 c-25 1 -53 -3 -62 -7 -10 -5 -19
-5 -22 0 -9 14 -275 9 -295 -6z"/>
<path d="M550 130 c0 -7 190 -10 550 -10 360 0 550 3 550 10 0 7 -190 10 -550
10 -360 0 -550 -3 -550 -10z"/>
<path d="M560 39 c0 -32 4 -39 19 -39 11 0 22 6 24 13 4 9 6 9 6 0 1 -20 111
-18 111 2 0 8 7 15 15 15 8 0 15 -7 15 -15 0 -11 12 -15 49 -15 43 0 50 3 54
23 l4 22 2 -22 c1 -22 5 -23 80 -23 75 0 80 1 84 23 l4 22 2 -22 c1 -30 28
-30 34 -1 l4 23 2 -22 c1 -20 7 -23 41 -23 22 0 41 5 41 10 1 6 1 19 1 30 0
11 0 25 -1 30 -1 7 -46 10 -121 9 -96 -1 -120 -4 -120 -15 0 -8 -4 -14 -10
-14 -5 0 -10 7 -10 15 0 12 -14 15 -65 15 -51 0 -65 -3 -65 -15 0 -8 -9 -15
-20 -15 -13 0 -18 5 -14 15 5 13 -7 15 -80 14 l-86 -1 0 -39z"/>
<path d="M1166 52 c3 -15 7 -32 9 -39 3 -9 58 -12 210 -12 195 1 205 2 205 20
0 10 5 19 10 19 6 0 10 -9 10 -21 0 -38 32 -18 37 23 l3 37 -245 1 -245 0 6
-28z"/>
</g>
</svg>
